<?xml version="1.0" encoding="UTF-8"?>
<svg width="752pt" height="752pt" version="1.1" viewBox="0 0 752 752" xmlns="http://www.w3.org/2000/svg">
 <g>
  <path d="m376 183.61c-106.06 0-192.39 86.328-192.39 192.39s86.328 192.39 192.39 192.39 192.39-86.328 192.39-192.39c0.003906-106.06-86.328-192.39-192.39-192.39z"/>
  <path d="m389.32 375.02c28.613-5.918 49.824-31.57 49.824-61.664 0-34.531-28.117-63.145-63.145-63.145-35.023 0-63.145 28.117-63.145 63.145 0 30.094 21.211 55.746 49.824 61.664-55.25 6.9062-99.648 57.719-99.648 116.91h224.95c0.49219-59.195-43.906-110.01-98.664-116.91z" fill="#fff"/>
 </g>
</svg>
