<?xml version="1.0" encoding="utf-8"?>
<!-- Svg Vector Icons : http://www.onlinewebfonts.com/icon -->
<!DOCTYPE svg PUBLIC "-//W3C//DTD SVG 1.1//EN" "http://www.w3.org/Graphics/SVG/1.1/DTD/svg11.dtd">
<svg version="1.1" xmlns="http://www.w3.org/2000/svg" xmlns:xlink="http://www.w3.org/1999/xlink" x="0px" y="0px" viewBox="0 0 1000 1000" enable-background="new 0 0 1000 1000" xml:space="preserve">
<g><g transform="translate(0.000000,511.000000) scale(0.100000,-0.100000)"><path d="M532.8,4371.1c-113-36.4-247.1-134.1-312.2-227.9c-116.8-170.5-118.7-199.2-113-1011.2l5.7-735.4l65.1-120.7c72.8-134.1,132.1-191.5,277.7-268.1l97.7-51.7h4452.8h4452.8l97.7,51.7c145.6,76.6,204.9,134.1,277.7,268.1l65.1,120.7v775.6v775.7l-47.9,95.8c-59.4,122.6-176.2,237.5-296.9,298.8l-95.8,46l-4424.1,3.8C1471.3,4394,596,4390.2,532.8,4371.1z M9155,3735.2c130.3-95.8,132.2-103.4,132.2-561.1v-417.5l-51.7-67c-109.2-141.7,281.5-130.2-4251.7-126.4L914,2568.9l-70.9,55.5c-114.9,88.1-126.4,134.1-126.4,545.8c0,377.3,9.6,436.7,82.4,517.1c93.8,101.5-153.2,95.8,4230.7,91.9l4073.6-3.8L9155,3735.2z" fill="white"/><path d="M532.8,1306.8c-180-57.5-333.2-210.7-398.4-400.3c-45.9-136-45.9-1455.5,0-1599.2c47.9-145.6,151.3-268.1,295-346.7l124.5-68.9h4452.8h4452.8l97.7,51.7c145.6,76.6,204.9,134.1,277.7,268.1l65.1,120.7v775.6v775.6l-47.9,95.8c-59.4,122.6-176.2,237.5-296.9,298.8l-95.8,46l-4424.1,3.8C1471.3,1329.7,596,1325.9,532.8,1306.8z M9155,670.9c130.3-95.8,132.2-103.4,132.2-561.1v-417.5l-51.7-67C9126.3-516.5,9517-505,4981.8-501.2l-4071.7,5.7l-51.7,40.2C730.1-361.3,726.3-346,720.5,56.2c-7.7,423.3-1.9,469.2,67,551.6c101.5,120.7-203,111.1,4242.1,107.3l4073.6-3.8L9155,670.9z" fill="white"/><path d="M532.8-1757.5c-180-57.5-333.2-210.7-398.4-400.3c-45.9-136-45.9-1455.5,0-1599.2c47.9-145.6,151.3-268.1,295-346.7l124.5-68.9h4452.8h4452.8l97.7,51.7c145.6,76.6,204.9,134.1,277.7,268.1l65.1,120.7v775.6v775.7l-47.9,95.8c-59.4,122.6-176.2,237.5-296.9,298.8l-95.8,46l-4424.1,3.8C1471.3-1734.5,596-1738.4,532.8-1757.5z M9155-2393.4c130.3-95.8,132.2-103.4,132.2-561.1V-3372l-51.7-67c-109.2-141.7,281.5-130.2-4253.6-126.4l-4071.7,5.7l-51.7,40.2c-128.3,93.8-132.1,109.2-137.9,511.4c-7.7,423.3-1.9,469.2,67,551.6c101.5,120.7-203,111.1,4242.1,107.3l4073.6-3.8L9155-2393.4z" fill="white"/></g></g>
</svg>